<?xml version="1.0" encoding="UTF-8"?>
<svg id="Capa_1" data-name="Capa 1" xmlns="http://www.w3.org/2000/svg" viewBox="0 0 550.62 433.48">
  <defs>
    <style>
      .cls-1 {
        fill: #7d39eb;
      }
    </style>
  </defs>
  <path class="cls-1" d="M522.53,379.52c-98.56-2.08-174.77-171.96-233.05-241.92-42.34-54.82-108.29-93.55-178.64-68.71-27.42,9.84-50.86,27.69-68.97,49.52,0,0,.03.35.03.44C-3.77,173.58-9.74,252.98,12.58,318.61c7.56,21.74,19.13,42.25,34.92,59.24v.5l.97,1.08c19.75,21.62,45.3,37.77,73.22,46.53,56.02,17.81,121.88,3.52,163.99-38.09,10.58-10.49,19.45-22.44,27.31-34.84,6.21-10.55,15.41-23.35,9.99-36.42-3.98-8.09-13.62-13.89-22.62-10.87-7.18,2.61-11.28,9.14-15.03,14.03-8.23,10.78-18.72,19.34-29.33,27.28-16.41,11.9-35.77,18.22-55.58,21.86-25.61,5.86-53.27,5.01-76.73-7.53-18.17-8.8-32.55-23.64-42.77-40.57-12.24-20.26-17.86-43.83-17.67-67.5l.05-6.16c.09-11.12,1.5-22.19,4.39-32.93,1.81-6.75,4.04-13.62,6.38-18.35,14.91-36.16,49.9-69.91,91.3-64.14,1.55.23,3.46.59,5.24.85-.88-.23-1.76-.5-2.43-.85.32.12,1.73.62,2.43.85.97.18,1.9.29,2.75.38-.62.09-1.67-.09-2.75-.38.23.09.38.15.38.15,43.13,10.93,70,51.77,96.22,85.11,27.83,37.27,55.43,75.5,86.2,110.69,41.34,48.58,94.72,95.9,161.32,100.61,12.31,1.61,25.67-.26,32.38-12.01,10.61-19.13-4.1-37.97-24.55-37.62Z"/>
  <path class="cls-1" d="M357.32,1.01c17.29,3.98,40.4,17.78,49.37,61.79,4.48,22.06,3.69,44.92-1.55,66.8-1.03,4.25-2.02,8.32-2.99,12.25-5.8,23.06-11.25,40.84-16.2,54.56h-.06v.21c-.58,1.57-1.16,3.14-1.74,4.62-1.54,3.92-5.3,6.51-9.51,6.51h-.09c-6.21,0-11.25-4.98-11.34-11.19,0-.03.03-.09.03-.15.06-.62.09-1.26.15-1.9.82-10.28.67-20.6-.26-30.88-1.41-58.86-18.52-97.92-32.64-124.08-2.96-5.51-4.86-11.51-5.57-17.73,0-.12-.03-.18-.03-.21-.12-2.72.15-5.48,1.06-8.03.02-.04.03-.09.05-.13,2.8-7.81,10.39-12.76,18.67-13.35,3.37-.24,7.58-.08,12.67.91Z"/>
</svg>